<?xml version="1.0" encoding="UTF-8"?>
<svg id="Layer_1" data-name="Layer 1" xmlns="http://www.w3.org/2000/svg" viewBox="0 0 894.5 525.2">
  <defs>
    <style>
      .cls-1 {
        font-family: Montserrat-Bold, Montserrat;
        font-size: 17.6px;
        font-weight: 700;
      }

      .cls-2 {
        fill: #fde215;
      }
    </style>
  </defs>
  <g>
    <rect x="305.8" y="159.7" width="12.8" height="12.8"/>
    <rect x="305.8" y="202.9" width="12.8" height="12.8"/>
    <rect x="265.1" y="206.1" width="6.4" height="6.4"/>
    <rect x="385.9" y="196.5" width="25.6" height="25.6"/>
    <rect x="385.9" y="153.3" width="25.6" height="25.6"/>
    <rect x="385.9" y="110" width="25.6" height="25.6"/>
    <rect x="385.9" y="66.8" width="25.6" height="25.6"/>
    <rect x="429.1" y="239.8" width="25.6" height="25.6"/>
    <rect x="472.4" y="239.8" width="25.6" height="25.6"/>
    <rect x="515.6" y="239.8" width="25.6" height="25.6"/>
    <rect x="558.9" y="239.8" width="25.6" height="25.6"/>
    <rect x="425.9" y="193.3" width="32" height="32"/>
    <rect x="425.9" y="150.1" width="32" height="32"/>
    <rect x="425.9" y="106.8" width="32" height="32"/>
    <rect x="425.9" y="63.6" width="32" height="32"/>
    <rect x="425.9" y="20.3" width="32" height="32"/>
    <rect x="469.2" y="193.3" width="32" height="32"/>
    <rect x="469.2" y="150.1" width="32" height="32"/>
    <rect x="469.2" y="106.8" width="32" height="32"/>
    <rect x="469.2" y="63.6" width="32" height="32"/>
    <rect x="469.2" y="20.3" width="32" height="32"/>
    <rect x="512.4" y="193.3" width="32" height="32"/>
    <rect x="512.4" y="150.1" width="32" height="32"/>
    <rect x="512.4" y="106.8" width="32" height="32"/>
    <rect x="512.4" y="63.6" width="32" height="32"/>
    <rect x="512.4" y="20.3" width="32" height="32"/>
    <rect x="555.7" y="193.3" width="32" height="32"/>
    <rect x="555.7" y="150.1" width="32" height="32"/>
    <rect x="555.7" y="106.8" width="32" height="32"/>
    <rect x="555.7" y="63.6" width="32" height="32"/>
    <rect x="555.7" y="20.3" width="32" height="32"/>
    <rect x="598.9" y="193.3" width="32" height="32"/>
    <rect x="598.9" y="150.1" width="32" height="32"/>
    <rect x="598.9" y="106.8" width="32" height="32"/>
    <rect x="598.9" y="63.6" width="32" height="32"/>
    <rect x="598.9" y="20.3" width="32" height="32"/>
    <rect x="385.9" y="239.8" width="25.6" height="25.6"/>
    <rect x="305.8" y="246.2" width="12.8" height="12.8"/>
    <rect x="432.3" y="286.2" width="19.2" height="19.2"/>
    <rect x="518.8" y="286.2" width="19.2" height="19.2"/>
    <rect x="345.8" y="113.2" width="19.2" height="19.2"/>
    <rect x="475.6" y="286.2" width="19.2" height="19.2"/>
    <rect x="265.1" y="249.4" width="6.4" height="6.4"/>
    <rect x="345.8" y="286.2" width="19.2" height="19.2"/>
    <rect x="305.8" y="289.4" width="12.8" height="12.8"/>
    <rect x="265.1" y="292.7" width="6.4" height="6.4"/>
    <rect x="389.1" y="286.2" width="19.2" height="19.2"/>
    <rect x="345.8" y="199.7" width="19.2" height="19.2"/>
    <rect x="345.8" y="156.5" width="19.2" height="19.2"/>
    <rect x="345.8" y="243" width="19.2" height="19.2"/>
    <rect x="392.3" y="332.7" width="12.8" height="12.8"/>
    <rect x="305.8" y="332.7" width="12.8" height="12.8"/>
    <rect x="349" y="332.7" width="12.8" height="12.8"/>
    <rect x="478.8" y="332.7" width="12.8" height="12.8"/>
    <rect x="265.1" y="335.9" width="6.4" height="6.4"/>
    <rect x="432.3" y="332.7" width="12.8" height="12.8"/>
    <rect x="395.5" y="379.7" width="6.4" height="6.4"/>
    <rect x="265.1" y="379.7" width="6.4" height="6.4"/>
    <rect x="309" y="379.7" width="6.4" height="6.4"/>
    <rect x="352.2" y="379.7" width="6.4" height="6.4"/>
    <rect x="435.5" y="379.7" width="6.4" height="6.4"/>
  </g>
  <path class="cls-2" d="M35.3,502.1c-7.1-1.9-12.9-4.3-17.3-7.5l8.7-19.4c4.2,2.8,9,5,14.5,6.7,5.5,1.7,10.9,2.5,16.2,2.5,10.1,0,15.2-2.5,15.2-7.6s-1.4-4.6-4.3-5.9c-2.9-1.3-7.5-2.6-13.9-4.1-7-1.5-12.9-3.1-17.6-4.9-4.7-1.7-8.7-4.5-12.1-8.3-3.4-3.8-5.1-9-5.1-15.4s1.6-10.8,4.7-15.4c3.1-4.6,7.7-8.2,13.9-10.9,6.2-2.7,13.7-4,22.7-4s12.2.7,18.1,2.1c5.9,1.4,11.2,3.4,15.7,6.1l-8.1,19.6c-8.9-4.8-17.5-7.2-25.8-7.2s-9.1.8-11.4,2.3c-2.4,1.6-3.6,3.6-3.6,6.1s1.4,4.3,4.3,5.6c2.8,1.2,7.4,2.5,13.7,3.9,7.1,1.5,13,3.1,17.6,4.9,4.7,1.7,8.7,4.5,12.1,8.3,3.4,3.8,5.1,8.9,5.1,15.4s-1.6,10.6-4.7,15.2c-3.1,4.5-7.8,8.1-14,10.9-6.2,2.7-13.8,4.1-22.6,4.1s-14.9-.9-22-2.8Z"/>
  <path class="cls-2" d="M154.2,500.7c-2.1,1.3-4.8,2.4-7.8,3.1-3.1.7-6.4,1.1-9.9,1.1-9.5,0-16.8-2.3-21.8-7-5.1-4.6-7.6-11.6-7.6-20.8v-28.3h-10.6v-19h10.6v-21.8h25.5v21.8h16.6v19h-16.6v28c0,2.6.7,4.6,2.1,6.1,1.4,1.5,3.2,2.2,5.6,2.2s5.5-.8,7.8-2.3l6.3,17.8Z"/>
  <path class="cls-2" d="M272.8,474.8l19.7,10.1c-2.5,6.3-6.8,11.1-12.7,14.7-6,3.5-13.1,5.3-21.3,5.3s-15.2-1.6-21.7-4.9c-6.3-3.2-11.3-7.7-14.8-13.4-3.5-5.7-5.3-12.2-5.3-19.4s1.8-13.7,5.3-19.4,8.5-10.1,14.8-13.3c6.4-3.2,13.6-4.7,21.7-4.7s15.3,1.8,21.3,5.2c6,3.5,10.2,8.5,12.7,14.7l-19.7,10c-3.3-6.5-8.1-9.8-14.4-9.8s-8.3,1.5-11.3,4.6c-3,3.1-4.5,7.3-4.5,12.6s1.5,9.7,4.5,12.8c3,3.1,6.8,4.6,11.3,4.6s11.1-3.2,14.4-9.8Z"/>
  <path class="cls-2" d="M258.4,484.6c-4.6,0-8.3-1.5-11.3-4.6-3-3.1-4.5-7.4-4.5-12.8s1.5-9.5,4.5-12.6c3-3,6.8-4.6,11.3-4.6s11.1,3.3,14.4,9.8l19.7-10c-2.5-6.3-6.8-11.2-12.7-14.7-6-3.5-13.1-5.2-21.3-5.2s-15.2,1.5-21.7,4.7c-6.3,3.2-11.3,7.6-14.8,13.3s-5.3,12.2-5.3,19.4,1.8,13.8,5.3,19.4c3.5,5.7,8.5,10.2,14.8,13.4,6.4,3.2,13.6,4.9,21.7,4.9s15.3-1.8,21.3-5.3c6-3.5,10.2-8.4,12.7-14.7l-19.7-10.1c-3.3,6.6-8.1,9.8-14.4,9.8Z"/>
  <path class="cls-2" d="M219,488.6c-3.9-6.3-5.9-13.5-5.9-21.4s2-15,5.9-21.3c.8-1.3,1.8-2.7,2.8-3.8-1-1.5-2.3-2.8-3.6-4.1-6.4-5.4-15.5-8.2-27.6-8.2s-11.6.7-17.4,2.2c-5.7,1.5-10.7,3.5-14.7,6.2l8.5,17.3c2.5-2,5.5-3.5,9.1-4.6,3.5-1.1,7.1-1.6,10.6-1.6,9.8,0,14.9,3.8,15.4,11.5h-14.5c-11,0-19.1,1.9-24.4,5.7-5.2,3.8-7.9,9.2-7.9,16.1s1,8.1,3.1,11.4c2.1,3.4,5.2,6,9.4,8,4.1,2,9,2.9,14.6,2.9,10.7,0,17.8-3.5,21.5-10.6v10.6h23.7v-6.5c-3.5-2.8-6.4-6.1-8.7-9.9ZM202.2,480.3c-1,2.7-2.6,4.9-4.9,6.3-2.2,1.5-4.8,2.1-7.7,2.1s-5.3-.7-7-2c-1.7-1.3-2.5-3.1-2.5-5.4,0-4.9,3.7-7.4,11.1-7.4h11v6.3Z"/>
  <path class="cls-2" d="M328.9,478.2l-7.5,7.6v19h-25.5v-96.9h25.5v48.4l26-26.6h30.2l-30.2,32.3,32.7,42.8h-30.8l-20.4-26.7Z"/>
  <path class="cls-2" d="M470,437.9c5.5,5.4,8.2,13.5,8.2,24.3v42.8h-25.5v-38.6c0-9.9-4-14.9-11.9-14.9s-7.9,1.4-10.5,4.3c-2.6,2.9-4,7.2-4,12.9v36.3h-25.5v-75.1h24.3v9.1c2.9-2.9,6.3-5.2,10.2-6.8,3.9-1.6,8.2-2.3,12.9-2.3,9,0,16.3,2.7,21.8,8Z"/>
  <path class="cls-2" d="M521.8,502.1c-7.1-1.9-12.9-4.3-17.3-7.5l8.7-19.4c4.2,2.8,9,5,14.5,6.7,5.5,1.7,10.9,2.5,16.2,2.5,10.1,0,15.2-2.5,15.2-7.6s-1.4-4.6-4.3-5.9c-2.9-1.3-7.5-2.6-13.9-4.1-7-1.5-12.9-3.1-17.6-4.9-4.7-1.7-8.7-4.5-12.1-8.3-3.4-3.8-5.1-9-5.1-15.4s1.6-10.8,4.7-15.4c3.1-4.6,7.7-8.2,13.9-10.8,6.2-2.7,13.7-4,22.7-4s12.2.7,18.1,2.1c5.9,1.4,11.2,3.4,15.7,6.1l-8.1,19.6c-8.9-4.8-17.5-7.2-25.8-7.2s-9.1.8-11.4,2.3c-2.4,1.6-3.6,3.6-3.6,6.1s1.4,4.3,4.3,5.6c2.8,1.2,7.4,2.5,13.7,3.9,7.1,1.5,13,3.1,17.6,4.9,4.7,1.7,8.7,4.5,12.1,8.3,3.4,3.8,5.1,8.9,5.1,15.4s-1.6,10.6-4.7,15.2c-3.1,4.5-7.8,8.1-14,10.8-6.2,2.7-13.8,4.1-22.6,4.1s-14.9-.9-22-2.8Z"/>
  <path class="cls-2" d="M641.5,500.7c-2.1,1.3-4.8,2.4-7.8,3.1-3.1.7-6.4,1.1-9.9,1.1-9.5,0-16.8-2.3-21.8-7-5.1-4.6-7.6-11.6-7.6-20.8v-28.3h-10.6v-19h10.6v-21.8h25.5v21.8h16.6v19h-16.6v28c0,2.6.7,4.6,2.1,6.1,1.4,1.5,3.2,2.2,5.6,2.2s5.5-.8,7.8-2.3l6.3,17.8Z"/>
  <path class="cls-2" d="M708.6,467.2c0-7.9,1.9-15.1,5.8-21.3.2-.3.4-.6.7-.9-3.2-4.3-7.5-7.8-12.7-10.5-6.3-3.2-13.3-4.8-21.1-4.8s-15,1.6-21.1,4.8c-6.2,3.2-11,7.6-14.6,13.3-3.5,5.7-5.3,12.2-5.3,19.3s1.8,13.7,5.3,19.4c3.5,5.7,8.4,10.2,14.7,13.4,6.3,3.2,13.3,4.9,21.1,4.9s14.9-1.6,21.1-4.9c5.2-2.7,9.4-6.1,12.7-10.5-.2-.3-.4-.7-.7-1-3.9-6.3-5.8-13.5-5.8-21.4ZM692.2,480c-2.9,3.1-6.6,4.6-11,4.6s-8.2-1.5-11-4.6c-2.9-3.1-4.3-7.4-4.3-12.8s1.5-9.6,4.3-12.6c2.8-3,6.5-4.6,11-4.6s8.1,1.5,11,4.6c2.9,3,4.3,7.2,4.3,12.6s-1.4,9.7-4.3,12.8Z"/>
  <path class="cls-2" d="M768.2,474.9l19.7,10c-2.5,6.3-6.8,11.2-12.7,14.7-6,3.5-13.1,5.3-21.3,5.3s-15.2-1.6-21.6-4.9c-6.4-3.2-11.3-7.7-14.9-13.4-3.5-5.7-5.2-12.2-5.2-19.4s1.8-13.7,5.2-19.4c3.5-5.7,8.5-10.1,14.9-13.3,6.3-3.2,13.5-4.8,21.6-4.8s15.3,1.8,21.3,5.3c6,3.5,10.2,8.5,12.7,14.7l-19.7,10.1c-3.2-6.6-8.1-9.8-14.4-9.8s-8.3,1.5-11.3,4.6c-3,3-4.5,7.2-4.5,12.6s1.5,9.7,4.5,12.8c3,3.1,6.8,4.6,11.3,4.6s11.2-3.3,14.4-9.8Z"/>
  <path class="cls-2" d="M753.8,484.7c-4.6,0-8.3-1.5-11.3-4.6-3-3.1-4.5-7.4-4.5-12.8s1.5-9.6,4.5-12.6c3-3,6.8-4.6,11.3-4.6s11.2,3.2,14.4,9.8l19.7-10.1c-2.5-6.2-6.8-11.1-12.7-14.7-6-3.5-13.1-5.3-21.3-5.3s-15.2,1.6-21.6,4.8c-6.4,3.2-11.3,7.6-14.9,13.3-3.5,5.7-5.2,12.2-5.2,19.4s1.8,13.7,5.2,19.4c3.5,5.7,8.5,10.2,14.9,13.4,6.3,3.2,13.5,4.9,21.6,4.9s15.3-1.8,21.3-5.3c6-3.5,10.2-8.5,12.7-14.7l-19.7-10c-3.2,6.5-8.1,9.8-14.4,9.8Z"/>
  <path class="cls-2" d="M825.3,478.2l-7.5,7.6v19h-25.5v-96.9h25.5v48.4l26-26.6h30.2l-30.2,32.3,32.7,42.8h-30.8l-20.4-26.7Z"/>
  <text class="cls-1" transform="translate(848.8 388.6)"><tspan x="0" y="0">TM</tspan></text>
</svg>