<?xml version="1.0" encoding="UTF-8"?>
<svg id="Layer_1" data-name="Layer 1" xmlns="http://www.w3.org/2000/svg" viewBox="0 0 1080 1080">
  <defs>
    <style>
      .cls-1 {
        font-family: Montserrat-Bold, Montserrat;
        font-size: 17.6px;
        font-weight: 700;
      }

      .cls-2 {
        fill: #fde215;
      }
    </style>
  </defs>
  <g>
    <circle cx="540" cy="540" r="280.5"/>
    <g>
      <rect class="cls-2" x="414.6" y="501.6" width="11.3" height="11.3"/>
      <rect class="cls-2" x="414.6" y="539.7" width="11.3" height="11.3"/>
      <rect class="cls-2" x="378.7" y="542.6" width="5.6" height="5.6"/>
      <rect class="cls-2" x="485.2" y="534.1" width="22.6" height="22.6"/>
      <rect class="cls-2" x="485.2" y="496" width="22.6" height="22.6"/>
      <rect class="cls-2" x="485.2" y="457.8" width="22.6" height="22.6"/>
      <rect class="cls-2" x="485.2" y="419.7" width="22.6" height="22.6"/>
      <rect class="cls-2" x="523.3" y="572.2" width="22.6" height="22.6"/>
      <rect class="cls-2" x="561.5" y="572.2" width="22.6" height="22.6"/>
      <rect class="cls-2" x="599.6" y="572.2" width="22.6" height="22.6"/>
      <rect class="cls-2" x="637.7" y="572.2" width="22.6" height="22.6"/>
      <rect class="cls-2" x="520.5" y="531.3" width="28.2" height="28.2"/>
      <rect class="cls-2" x="520.5" y="493.1" width="28.2" height="28.2"/>
      <rect class="cls-2" x="520.5" y="455" width="28.2" height="28.2"/>
      <rect class="cls-2" x="520.5" y="416.9" width="28.2" height="28.2"/>
      <rect class="cls-2" x="520.5" y="378.7" width="28.2" height="28.2"/>
      <rect class="cls-2" x="558.6" y="531.3" width="28.2" height="28.2"/>
      <rect class="cls-2" x="558.6" y="493.1" width="28.2" height="28.2"/>
      <rect class="cls-2" x="558.6" y="455" width="28.2" height="28.2"/>
      <rect class="cls-2" x="558.6" y="416.9" width="28.2" height="28.2"/>
      <rect class="cls-2" x="558.6" y="378.7" width="28.2" height="28.2"/>
      <rect class="cls-2" x="596.8" y="531.3" width="28.2" height="28.2"/>
      <rect class="cls-2" x="596.8" y="493.1" width="28.2" height="28.2"/>
      <rect class="cls-2" x="596.8" y="455" width="28.2" height="28.2"/>
      <rect class="cls-2" x="596.8" y="416.9" width="28.2" height="28.2"/>
      <rect class="cls-2" x="596.8" y="378.7" width="28.2" height="28.2"/>
      <rect class="cls-2" x="634.9" y="531.3" width="28.2" height="28.2"/>
      <rect class="cls-2" x="634.9" y="493.1" width="28.2" height="28.2"/>
      <rect class="cls-2" x="634.9" y="455" width="28.2" height="28.2"/>
      <rect class="cls-2" x="634.9" y="416.9" width="28.2" height="28.2"/>
      <rect class="cls-2" x="634.9" y="378.7" width="28.2" height="28.2"/>
      <rect class="cls-2" x="673.1" y="531.3" width="28.2" height="28.2"/>
      <rect class="cls-2" x="673.1" y="493.1" width="28.2" height="28.2"/>
      <rect class="cls-2" x="673.1" y="455" width="28.2" height="28.2"/>
      <rect class="cls-2" x="673.1" y="416.9" width="28.2" height="28.2"/>
      <rect class="cls-2" x="673.1" y="378.7" width="28.2" height="28.2"/>
      <rect class="cls-2" x="485.2" y="572.2" width="22.6" height="22.6"/>
      <rect class="cls-2" x="414.6" y="577.9" width="11.3" height="11.3"/>
      <rect class="cls-2" x="526.2" y="613.2" width="16.9" height="16.9"/>
      <rect class="cls-2" x="602.4" y="613.2" width="16.9" height="16.9"/>
      <rect class="cls-2" x="449.9" y="460.6" width="16.9" height="16.9"/>
      <rect class="cls-2" x="564.3" y="613.2" width="16.9" height="16.9"/>
      <rect class="cls-2" x="378.7" y="580.7" width="5.6" height="5.6"/>
      <rect class="cls-2" x="449.9" y="613.2" width="16.9" height="16.9"/>
      <rect class="cls-2" x="414.6" y="616" width="11.3" height="11.3"/>
      <rect class="cls-2" x="378.7" y="618.8" width="5.6" height="5.6"/>
      <rect class="cls-2" x="488" y="613.2" width="16.9" height="16.9"/>
      <rect class="cls-2" x="449.9" y="536.9" width="16.9" height="16.9"/>
      <rect class="cls-2" x="449.9" y="498.8" width="16.9" height="16.9"/>
      <rect class="cls-2" x="449.9" y="575.1" width="16.9" height="16.9"/>
      <rect class="cls-2" x="490.8" y="654.2" width="11.3" height="11.3"/>
      <rect class="cls-2" x="414.6" y="654.2" width="11.3" height="11.3"/>
      <rect class="cls-2" x="452.7" y="654.2" width="11.3" height="11.3"/>
      <rect class="cls-2" x="567.1" y="654.2" width="11.3" height="11.3"/>
      <rect class="cls-2" x="378.7" y="657" width="5.6" height="5.6"/>
      <rect class="cls-2" x="526.2" y="654.2" width="11.3" height="11.3"/>
      <rect class="cls-2" x="493.7" y="695.6" width="5.6" height="5.6"/>
      <rect class="cls-2" x="378.7" y="695.6" width="5.6" height="5.6"/>
      <rect class="cls-2" x="417.4" y="695.6" width="5.6" height="5.6"/>
      <rect class="cls-2" x="455.5" y="695.6" width="5.6" height="5.6"/>
      <rect class="cls-2" x="529" y="695.6" width="5.6" height="5.6"/>
    </g>
  </g>
  <text class="cls-1" transform="translate(793.7 276.7)"><tspan x="0" y="0">TM</tspan></text>
</svg>